<svg xmlns="http://www.w3.org/2000/svg" xmlns:xlink="http://www.w3.org/1999/xlink" width="1024" zoomAndPan="magnify" viewBox="0 0 768 767.999994" height="1024" preserveAspectRatio="xMidYMid meet" version="1.0"><defs><clipPath id="f495428a52"><path d="M 116.0625 68.546875 L 699.445312 68.546875 L 699.445312 651.929688 L 116.0625 651.929688 Z M 116.0625 68.546875 " clip-rule="nonzero"/></clipPath><clipPath id="53b3b4695c"><path d="M 407.753906 68.546875 C 246.660156 68.546875 116.0625 199.140625 116.0625 360.238281 C 116.0625 521.335938 246.660156 651.929688 407.753906 651.929688 C 568.851562 651.929688 699.445312 521.335938 699.445312 360.238281 C 699.445312 199.140625 568.851562 68.546875 407.753906 68.546875 Z M 407.753906 68.546875 " clip-rule="nonzero"/></clipPath><clipPath id="6b93964706"><path d="M 207 201.445312 L 608 201.445312 L 608 518.695312 L 207 518.695312 Z M 207 201.445312 " clip-rule="nonzero"/></clipPath></defs><g clip-path="url(#f495428a52)"><g clip-path="url(#53b3b4695c)"><path stroke-linecap="butt" transform="matrix(0.75, 0, 0, 0.75, 116.064446, 68.546729)" fill="none" stroke-linejoin="miter" d="M 388.9193 0.000195189 C 174.127622 0.000195189 -0.00259474 174.125204 -0.00259474 388.922089 C -0.00259474 603.718975 174.127622 777.843984 388.9193 777.843984 C 603.716185 777.843984 777.841194 603.718975 777.841194 388.922089 C 777.841194 174.125204 603.716185 0.000195189 388.9193 0.000195189 Z M 388.9193 0.000195189 " stroke="#053f91" stroke-width="38" stroke-opacity="1" stroke-miterlimit="4"/></g></g><g clip-path="url(#6b93964706)"><path fill="#2c80e2" d="M 345.175781 519.035156 L 207.585938 381.433594 L 262.414062 326.589844 L 345.175781 409.351562 L 553.09375 201.445312 L 607.925781 256.265625 Z M 345.175781 519.035156 " fill-opacity="1" fill-rule="nonzero"/></g></svg>